
<!-- Profil SVG -->

<svg xmlns="http://www.w3.org/2000/svg" style="display: none;">
    <symbol id="icon-profile" viewBox="0 -960 960 960">
        <path d="M480-480q-66 0-113-47t-47-113q0-66 47-113t113-47q66 0 113 47t47 113q0 66-47 113t-113 47ZM160-160v-112q0-34 17.5-62.5T224-378q62-31 126-46.5T480-440q66 0 130 15.5T736-378q29 15 46.5 43.5T800-272v112H160Zm80-80h480v-32q0-11-5.5-20T700-306q-54-27-109-40.5T480-360q-56 0-111 13.5T260-306q-9 5-14.5 14t-5.5 20v32Zm240-320q33 0 56.5-23.5T560-640q0-33-23.5-56.5T480-720q-33 0-56.5 23.5T400-640q0 33 23.5 56.5T480-560Zm0-80Zm0 400Z"/>
    </symbol>
</svg>

<!-- Logout SVG -->

<svg xmlns="http://www.w3.org/2000/svg" style="display: none;">
    <symbol id="logout-icon" viewBox="0 -960 960 960">
        <path d="M200-120q-33 0-56.5-23.5T120-200v-560q0-33 23.5-56.5T200-840h280v80H200v560h280v80H200Zm440-160-55-58 102-102H360v-80h327L585-622l55-58 200 200-200 200Z"/>
    </symbol>
</svg>

<!-- Arrow SVG -->

<svg xmlns="http://www.w3.org/2000/svg" style="display: none;">
    <symbol id="arrow-icon" viewBox="0 -960 960 960">
        <path d="M360-200v-80h264L160-744l56-56 464 464v-264h80v400H360Z"/></svg>
    </symbol>
</svg>

<!-- Menu SVG -->

<svg xmlns="http://www.w3.org/2000/svg" style="display: none;">
    <symbol id ="menu-icon" viewBox="0 -960 960 960">
        <path d="M120-240v-80h720v80H120Zm0-200v-80h720v80H120Zm0-200v-80h720v80H120Z"/>
    </symbol>
</svg>

<svg xmlns="http://www.w3.org/2000/svg" style="display: none;">
    <symbol id ="upload-icon" viewBox="0 -960 960 960"> 
        <path d="M260-160q-91 0-155.5-63T40-377q0-78 47-139t123-78q25-92 100-149t170-57q117 0 198.5 81.5T760-520q69 8 114.5 59.5T920-340q0 75-52.5 127.5T740-160H520q-33 0-56.5-23.5T440-240v-206l-64 62-56-56 160-160 160 160-56 56-64-62v206h220q42 0 71-29t29-71q0-42-29-71t-71-29h-60v-80q0-83-58.5-141.5T480-720q-83 0-141.5 58.5T280-520h-20q-58 0-99 41t-41 99q0 58 41 99t99 41h100v80H260Zm220-280Z"/>
    </symbol>
</svg>

<svg xmlns="http://www.w3.org/2000/svg" style="display: none;">
    <symbol id="alert-icon" viewBox="0 0 24 24">
        <path d="M12 2C12.39 2 12.76 2.18 12.95 2.5L22.21 18.5C22.43 18.85 22.45 19.29 22.26 19.65C22.07 20.01 21.7 20.24 21.29 20.24H2.71C2.3 20.24 1.93 20.01 1.74 19.65C1.55 19.29 1.57 18.85 1.79 18.5L11.05 2.5C11.24 2.18 11.61 2 12 2ZM12 4.24L3.9 18H20.1L12 4.24ZM12 8C12.55 8 13 8.45 13 9V13C13 13.55 12.55 14 12 14C11.45 14 11 13.55 11 13V9C11 8.45 11.45 8 12 8ZM12 16C12.55 16 13 16.45 13 17C13 17.55 12.55 18 12 18C11.45 18 11 17.55 11 17C11 16.45 11.45 16 12 16Z"/>
    </symbol>
</svg>
